<svg version="1.1" id="Layer_1" xmlns="http://www.w3.org/2000/svg" xmlns:xlink="http://www.w3.org/1999/xlink" x="0px" y="0px"
	 width="100%" viewBox="0 0 480 480" enable-background="new 0 0 480 480" xml:space="preserve">
<path fill="#000000" opacity="1.000000" stroke="none" 
	d="
M323.402710,55.511909 
	C395.386932,87.254036 437.564270,142.082932 449.135956,219.109131 
	C458.385925,280.680817 442.674866,336.600677 402.659790,384.627075 
	C368.281891,425.887634 324.087616,451.116058 270.802948,459.050903 
	C180.013382,472.570709 92.896591,428.157227 50.088081,346.886414 
	C32.208992,312.943451 24.846310,276.476746 26.883461,238.308273 
	C29.738270,184.820023 49.126804,138.196930 87.447235,100.308014 
	C119.642349,68.475449 158.377197,48.922749 203.160248,41.620022 
	C244.414810,34.892681 284.388153,39.432674 323.402710,55.511909 
M351.201599,80.333710 
	C307.142609,52.531746 259.210297,42.707455 207.823898,50.173714 
	C157.495377,57.486271 115.277603,80.379585 82.612862,119.343102 
	C40.527641,169.543640 27.289486,227.690414 39.993992,291.407684 
	C49.760628,340.390625 75.682167,380.052765 115.301788,410.357544 
	C162.575333,446.516754 216.132904,459.036926 274.513947,449.198853 
	C319.649109,441.592926 358.088684,420.407684 388.908539,386.475922 
	C433.532837,337.345886 450.618744,279.319977 439.486755,214.187561 
	C429.794617,157.479675 400.138458,112.667320 351.201599,80.333710 
z"/>
<path fill="#000000" opacity="1.000000" stroke="none" 
	d="
M196.862549,194.247040 
	C192.050430,194.240021 187.715866,194.323761 183.387299,194.199463 
	C180.627609,194.120209 179.415359,195.256821 179.428329,198.002243 
	C179.469238,206.665695 179.483139,215.329727 179.421814,223.992950 
	C179.402100,226.778885 180.755539,227.958069 183.375992,227.920807 
	C188.037537,227.854507 192.714813,227.953171 197.354599,227.588989 
	C201.254761,227.282852 204.394455,225.396378 205.515228,221.330856 
	C206.061005,219.351074 207.111465,218.537903 209.096680,218.812256 
	C211.471542,219.140427 211.283615,221.002563 211.293320,222.628296 
	C211.333054,229.292633 211.326416,235.957520 211.287537,242.621902 
	C211.278015,244.253983 211.485184,246.139908 209.095566,246.423569 
	C206.773026,246.699249 205.859818,245.318558 205.373764,243.300415 
	C204.120163,238.095474 200.672913,236.007111 195.443649,236.218140 
	C191.451752,236.379242 187.447311,236.274506 183.449280,236.222961 
	C180.729019,236.187912 179.465942,237.513229 179.466202,240.169724 
	C179.467087,248.663315 179.281128,257.162659 179.542282,265.648224 
	C179.684479,270.268585 182.237823,273.023834 187.263306,272.848663 
	C190.092178,272.750031 192.936691,272.683929 195.758133,272.859863 
	C207.799179,273.610748 216.049744,267.816986 221.975494,257.898804 
	C222.828476,256.471161 223.647156,255.018158 224.584747,253.647339 
	C225.527451,252.269043 226.916992,251.721527 228.514374,252.283340 
	C230.321457,252.918930 230.380463,254.479080 230.089844,256.026428 
	C228.739014,263.218567 227.341003,270.401764 225.968201,277.589783 
	C225.475388,280.170197 223.875259,281.051880 221.330490,281.046051 
	C199.337494,280.995789 177.344330,281.029175 155.351318,280.980316 
	C153.576660,280.976349 151.366547,281.045197 150.966110,278.642517 
	C150.581039,276.332031 152.574951,275.504303 154.238052,274.811371 
	C159.012955,272.821930 160.802505,269.347626 160.760788,264.198029 
	C160.594772,243.705475 160.624115,223.210495 160.730591,202.717178 
	C160.757812,197.476883 159.163971,193.631210 153.885620,191.871490 
	C152.284134,191.337585 150.622635,190.568939 150.888199,188.444672 
	C151.204727,185.912796 153.367065,185.988129 155.125916,185.983978 
	C176.952194,185.932312 198.778625,185.954086 220.605026,185.941040 
	C223.703003,185.939194 225.160110,187.383392 225.143768,190.522293 
	C225.113419,196.353195 225.216187,202.184677 225.229065,208.015991 
	C225.232788,209.704468 225.211411,211.516449 223.056244,211.963623 
	C220.653564,212.462189 219.788925,210.763779 219.272842,208.906754 
	C216.162354,197.714279 208.244492,193.760468 196.862549,194.247040 
z"/>
<path fill="#000000" opacity="1.000000" stroke="none" 
	d="
M303.903748,254.017059 
	C302.839020,251.062988 300.919586,250.296692 298.285828,250.320419 
	C289.120209,250.403046 279.953400,250.344910 270.787109,250.363724 
	C269.301910,250.366776 267.488708,250.123108 266.732880,251.688843 
	C264.133484,257.073456 261.205139,262.413025 260.824310,268.527679 
	C260.651825,271.296570 262.508362,273.105408 265.121460,274.036774 
	C266.844452,274.650818 268.592468,275.219330 270.252197,275.977081 
	C271.352997,276.479645 272.130005,277.440308 271.905426,278.775452 
	C271.674347,280.148773 270.535767,280.766571 269.360138,280.774231 
	C260.535370,280.832031 251.709717,280.819519 242.885010,280.748322 
	C241.734482,280.739075 240.506973,280.314484 240.205002,278.922424 
	C239.909225,277.558990 240.772522,276.563202 241.815613,276.096344 
	C248.556900,273.079102 251.160660,266.965942 253.646942,260.696381 
	C261.382141,241.190674 269.119202,221.685486 276.958679,202.221619 
	C278.375549,198.703812 279.507294,195.349136 276.744965,191.412766 
	C281.851685,188.546539 286.866302,186.531815 292.239960,185.486038 
	C295.184906,184.912918 295.729004,187.492081 296.547913,189.425156 
	C304.083496,207.213913 311.582245,225.018265 319.096710,242.815979 
	C322.141357,250.027100 325.227783,257.220703 328.239075,264.445679 
	C330.143433,269.014893 332.532410,273.068939 337.402130,275.141327 
	C338.912598,275.784149 340.399719,276.962372 339.790710,279.006287 
	C339.266724,280.764893 337.618225,280.954285 336.108063,280.957428 
	C325.442810,280.979645 314.777069,280.992828 304.112640,280.889923 
	C302.542999,280.874786 300.476471,280.845154 300.045135,278.763031 
	C299.538239,276.316559 301.722260,275.835938 303.335541,275.074554 
	C310.268768,271.802368 310.695343,270.808044 307.893646,263.590424 
	C306.688873,260.486694 305.341553,257.438293 303.903748,254.017059 
M288.431427,241.723785 
	C291.637848,241.461609 294.967072,242.303574 298.497833,240.871338 
	C293.951569,229.679123 289.548767,218.840118 285.145996,208.001099 
	C284.741119,208.001953 284.336243,208.002808 283.931366,208.003662 
	C279.566956,218.991531 275.202576,229.979401 270.537933,241.723206 
	C276.856445,241.723206 282.154877,241.723206 288.431427,241.723785 
z"/>
<path fill="#000000" opacity="1.000000" stroke="none" 
	d="
M134.417572,261.912598 
	C130.202103,274.800446 120.592026,280.416290 108.448235,281.942474 
	C96.661835,283.423737 85.242981,281.609955 74.763542,275.430939 
	C71.248573,273.358398 69.529434,270.652557 69.714584,266.481262 
	C69.921059,261.829346 69.671379,257.158691 69.700783,252.496704 
	C69.713043,250.553284 69.366974,248.330368 72.204483,247.821426 
	C74.891296,247.339508 75.686035,249.166000 76.333923,251.145264 
	C77.798790,255.620407 80.022850,259.701752 82.770287,263.497253 
	C89.161407,272.326416 101.031975,276.157532 110.721817,272.565674 
	C120.302307,269.014343 122.796127,257.372192 115.451195,250.213852 
	C111.681305,246.539764 106.920914,244.478455 102.153740,242.463928 
	C96.638229,240.133194 91.007027,238.031540 85.652649,235.373932 
	C75.986023,230.575958 70.821770,222.695541 71.131325,211.747284 
	C71.466423,199.895172 77.379738,191.549240 88.178352,186.958832 
	C101.045708,181.488983 113.573257,183.410919 125.699730,189.628860 
	C128.953751,191.297394 130.589355,193.768784 130.396866,197.648254 
	C130.174576,202.128265 130.523499,206.634079 130.514069,211.128448 
	C130.510239,212.945038 130.510559,215.044144 128.182800,215.561218 
	C125.669411,216.119476 124.626579,214.294128 123.861099,212.338318 
	C122.463120,208.766434 120.899765,205.290497 118.782188,202.065735 
	C113.794014,194.469452 106.605019,192.027252 98.001076,193.442734 
	C92.927521,194.277405 88.842941,197.026962 87.551529,202.269577 
	C86.192772,207.785583 88.095413,212.442291 92.727905,215.853760 
	C97.064781,219.047485 102.002289,221.033524 106.986862,222.943649 
	C111.956833,224.848160 116.982994,226.649673 121.539673,229.476410 
	C133.787842,237.074631 137.917358,247.275177 134.417572,261.912598 
z"/>
<path fill="#000000" opacity="1.000000" stroke="none" 
	d="
M359.005157,230.000000 
	C359.001862,220.501419 358.923248,211.501999 359.023682,202.504593 
	C359.079285,197.521057 357.579956,193.748199 352.529053,191.896469 
	C350.698151,191.225204 348.456268,190.206818 349.203339,187.669968 
	C349.855072,185.456818 352.127563,185.873245 353.917084,185.870560 
	C363.415527,185.856247 372.914337,185.847229 382.412415,185.916138 
	C384.295471,185.929794 386.742218,185.326004 387.263153,188.143082 
	C387.720886,190.618454 385.504089,191.042526 383.909515,191.801254 
	C379.870636,193.723038 378.086182,196.761658 378.113647,201.345810 
	C378.241364,222.675125 378.137299,244.005692 378.191772,265.335632 
	C378.206421,271.069519 379.911835,272.314484 385.718811,272.873932 
	C399.971100,274.247101 410.388275,269.065826 416.512146,255.846146 
	C417.476715,253.763916 418.669006,251.174606 421.649445,252.415085 
	C424.332977,253.531967 423.171234,256.137970 422.928467,258.169128 
	C422.179169,264.437988 421.165588,270.678070 420.542206,276.957886 
	C420.249939,279.902008 419.010345,281.016296 416.133331,281.009888 
	C395.303558,280.963409 374.473572,281.006714 353.643829,280.955353 
	C351.915863,280.951080 349.572021,281.270660 349.150543,278.857269 
	C348.753754,276.585144 350.827179,275.786346 352.509094,275.110840 
	C357.346893,273.167938 359.127228,269.582855 359.056274,264.493744 
	C358.898315,253.164459 359.005493,241.831467 359.005157,230.000000 
z"/>
<path fill="#000000" opacity="1.000000" stroke="none" 
	d="
M293.460266,157.495575 
	C298.520477,150.443344 303.363495,143.677750 308.233887,136.931976 
	C312.802246,130.604568 316.438721,130.545563 321.049927,136.674164 
	C322.031036,137.978073 322.745148,139.563400 325.178497,140.348862 
	C329.328186,134.639725 333.682587,128.817703 337.855011,122.868065 
	C343.817322,114.366196 348.074860,114.360016 354.173767,122.837410 
	C364.085327,136.614380 374.087921,150.325821 384.039337,164.074127 
	C384.990753,165.388550 386.394836,166.495850 386.122345,169.824142 
	C353.106995,170.175964 319.994110,169.951355 285.837189,170.002701 
	C287.957550,164.474197 290.923523,161.317459 293.460266,157.495575 
M367.430878,163.812576 
	C371.051483,163.682663 369.643433,161.996918 368.492065,160.387054 
	C362.877441,152.536896 357.322357,144.643097 351.615570,136.860504 
	C349.808624,134.396271 348.470734,131.450806 345.335541,129.510315 
	C339.313324,137.746811 333.394287,145.754929 327.579132,153.837799 
	C325.206970,157.135071 323.128448,157.302505 320.562042,153.999573 
	C318.664673,151.557709 317.598907,148.371246 313.944397,146.447037 
	C309.990601,151.965881 306.045227,157.473007 301.501404,163.815445 
	C324.066071,163.815445 345.356842,163.815445 367.430878,163.812576 
z"/>
<path fill="#000000" opacity="1.000000" stroke="none" 
	d="
M282.008057,73.728752 
	C288.065186,73.728668 293.624908,73.728668 300.100586,73.728668 
	C296.643463,80.553337 291.778625,82.718262 285.865448,82.989960 
	C281.045807,83.211418 276.205780,83.004425 271.388062,83.248817 
	C262.219635,83.713905 255.335037,88.706154 248.391769,94.942673 
	C252.577881,97.213524 257.193359,97.729782 259.775391,101.387947 
	C259.559601,101.900734 259.473511,102.430519 259.305511,102.457916 
	C250.008560,103.974777 242.409378,108.790253 234.911041,114.203094 
	C228.612457,118.749863 222.758347,117.740089 218.570175,112.404701 
	C220.342804,109.961334 223.535156,110.072800 225.820953,108.512482 
	C229.165482,106.229454 230.216644,103.921745 227.742599,100.260742 
	C221.005066,90.290771 211.844101,84.359329 199.819489,83.217522 
	C195.855774,82.841133 191.832825,83.137993 187.843979,82.965126 
	C182.138840,82.717865 177.765823,80.255447 174.656494,74.258614 
	C197.746170,72.817932 220.020996,71.461288 236.875000,92.542549 
	C248.943115,78.562698 263.831360,72.574509 282.008057,73.728752 
z"/>
<path fill="#000000" opacity="1.000000" stroke="none" 
	d="
M235.329956,388.956329 
	C238.710022,387.324432 241.382385,387.814240 243.984741,389.962830 
	C250.037201,394.959900 255.279083,400.766571 260.621368,406.464050 
	C263.282898,409.302460 263.149658,412.581421 260.670654,415.509186 
	C255.508133,421.606232 249.942856,427.326904 243.760254,432.404449 
	C240.238708,435.296570 236.602554,434.985077 233.418961,431.938019 
	C228.254730,426.995178 223.082260,422.033752 218.284225,416.743774 
	C214.125671,412.158783 214.402115,409.095276 218.810410,404.643036 
	C224.068176,399.332855 228.925705,393.596558 235.329956,388.956329 
z"/>
<path fill="#000000" opacity="1.000000" stroke="none" 
	d="
M117.429169,148.198547 
	C124.135612,151.077774 130.179794,155.341492 137.630676,152.576904 
	C140.581070,151.482178 143.378738,149.982010 146.273880,148.731094 
	C155.316101,144.824173 163.836761,146.363358 171.898636,151.443390 
	C174.211151,152.900589 176.313843,154.894989 174.491318,158.012695 
	C172.737808,161.012314 170.282028,161.443085 167.341309,159.466812 
	C160.086014,154.590942 152.937164,154.818893 145.412750,159.300003 
	C137.893112,163.778275 129.698074,163.796112 121.973274,159.971664 
	C113.355850,155.705276 105.182640,153.882172 96.710281,160.113373 
	C94.038033,162.078751 91.610970,160.820084 90.002846,158.183182 
	C88.324677,155.431473 89.597031,153.506790 91.958282,151.917618 
	C99.724312,146.690994 108.012421,144.933731 117.429169,148.198547 
z"/>
<path fill="#000000" opacity="1.000000" stroke="none" 
	d="
M152.192261,138.297211 
	C149.680115,139.308990 147.474869,140.093292 145.416992,141.161499 
	C136.978577,145.541748 128.520966,145.626297 120.064339,141.352936 
	C112.689461,137.626205 105.399750,136.103821 97.894836,141.096283 
	C95.126068,142.938126 92.001114,143.286148 90.098320,139.951675 
	C88.084023,136.421829 90.673729,134.343903 93.376312,132.776031 
	C101.655548,127.972908 110.458191,126.564522 119.078407,131.169983 
	C128.179749,136.032486 136.585312,135.725098 145.644638,131.076340 
	C154.523361,126.520264 163.416824,128.192413 171.771118,133.236130 
	C174.250534,134.733017 176.179840,136.629364 174.485977,139.712112 
	C172.774857,142.826233 170.103561,142.854721 167.207626,141.309708 
	C162.629028,138.866989 158.032974,136.476959 152.192261,138.297211 
z"/>
<path fill="#000000" opacity="1.000000" stroke="none" 
	d="
M332.891113,325.860229 
	C329.647461,325.533508 329.773712,323.380951 329.764374,321.375153 
	C329.738068,315.725464 329.739319,310.075470 329.767822,304.425812 
	C329.776031,302.798981 329.446686,300.856842 331.451416,300.151093 
	C333.549988,299.412231 335.355560,300.230103 336.757355,301.921326 
	C339.713959,305.488403 342.668304,309.057404 346.695282,313.919586 
	C346.695282,309.703979 346.684631,306.865967 346.698792,304.028107 
	C346.709290,301.929535 346.840363,299.895386 349.733765,299.913879 
	C352.208160,299.929688 352.825348,301.647797 352.805847,303.600250 
	C352.739563,310.241852 352.553802,316.882324 352.400574,323.522888 
	C352.376343,324.573578 352.093964,325.560059 350.923859,325.833038 
	C348.915192,326.301727 347.341370,325.464447 346.110016,323.939362 
	C343.090088,320.198975 340.101227,316.433472 336.104431,311.432587 
	C336.104431,315.600586 336.135254,318.450134 336.094025,321.298645 
	C336.064545,323.335754 336.005341,325.412628 332.891113,325.860229 
z"/>
<path fill="#000000" opacity="1.000000" stroke="none" 
	d="
M364.187164,326.016357 
	C360.806885,326.056122 359.594543,324.649628 359.650482,321.711029 
	C359.764282,315.732971 359.740906,309.750610 359.668213,303.771332 
	C359.634857,301.029694 360.867645,299.790253 363.549896,299.850708 
	C366.369080,299.914307 369.232941,299.666016 371.999512,300.077118 
	C380.011505,301.267578 383.582977,305.436615 383.527985,313.079620 
	C383.474792,320.471527 379.468567,324.812134 371.609741,325.780243 
	C369.312988,326.063171 366.968262,325.956696 364.187164,326.016357 
M374.073761,307.227386 
	C367.251526,304.811035 366.053528,305.598724 365.990723,312.544861 
	C365.984711,313.209320 365.895844,313.890289 366.007690,314.535431 
	C366.370880,316.631470 364.865540,319.760376 368.159576,320.366272 
	C371.515381,320.983490 374.502441,319.430908 376.038605,316.331360 
	C377.526184,313.329803 377.501862,310.204498 374.073761,307.227386 
z"/>
<path fill="#000000" opacity="1.000000" stroke="none" 
	d="
M249.333023,314.028534 
	C247.155258,315.758636 247.697922,317.294220 248.814590,319.024628 
	C249.953979,320.790344 251.489105,322.420715 251.586746,324.989929 
	C244.057693,328.662964 243.725266,319.865204 239.567062,317.978394 
	C237.616684,319.197418 238.483994,321.035187 238.354172,322.541290 
	C238.192398,324.417847 237.712891,325.814514 235.541504,325.874908 
	C233.573624,325.929657 232.228699,325.005066 232.218521,323.004456 
	C232.184799,316.369720 232.251999,309.733276 232.401688,303.100220 
	C232.421844,302.208008 232.915634,301.088501 233.570755,300.493073 
	C235.561890,298.683258 246.241776,299.895996 248.846909,302.083466 
	C252.062881,304.783844 252.314667,308.919922 249.333023,314.028534 
M240.416458,305.932953 
	C237.547592,306.343475 238.290009,308.496674 238.559433,310.171417 
	C238.789505,311.601624 240.165894,311.708130 241.366089,311.555542 
	C242.967697,311.351959 244.364319,310.611267 244.451614,308.849640 
	C244.561340,306.636169 242.785004,306.265625 240.416458,305.932953 
z"/>
<path fill="#000000" opacity="1.000000" stroke="none" 
	d="
M322.169434,316.922882 
	C323.066528,319.779846 324.721924,322.009308 324.632172,325.050568 
	C321.505615,326.478668 319.266083,326.377838 317.443512,322.773712 
	C315.561554,319.052185 309.380157,319.113831 307.348969,322.855194 
	C305.619598,326.040619 303.521057,326.566223 299.756622,325.004272 
	C302.804688,317.239807 305.576660,309.480530 308.917633,301.974548 
	C310.490021,298.441925 314.906494,298.911896 316.569031,302.657318 
	C318.587616,307.204926 320.230957,311.919067 322.169434,316.922882 
z"/>
<path fill="#000000" opacity="1.000000" stroke="none" 
	d="
M153.001343,320.320526 
	C150.403717,320.129913 148.848846,320.795654 147.917862,323.050140 
	C146.662384,326.090424 144.361359,326.634644 140.764954,324.815338 
	C143.787415,317.126099 146.590515,309.397095 149.892395,301.887390 
	C151.222778,298.861572 155.714859,298.985504 157.059296,302.064636 
	C160.286148,309.455048 163.077927,317.035400 166.100861,324.679718 
	C162.524475,326.667328 160.027008,326.576630 158.486160,323.328186 
	C157.401230,321.040894 155.841476,320.058502 153.001343,320.320526 
z"/>
<path fill="#000000" opacity="1.000000" stroke="none" 
	d="
M196.956818,322.821228 
	C195.461365,325.930267 193.436462,326.606537 190.220551,325.037750 
	C190.736938,320.310120 193.240601,316.158966 194.741379,311.718048 
	C195.801407,308.581390 196.928223,305.442108 198.352600,302.460388 
	C199.961868,299.091614 204.435059,298.580566 205.832245,301.769257 
	C209.128342,309.291626 211.867416,317.058075 214.887253,324.869232 
	C211.179092,326.589508 209.026169,326.293732 207.227661,323.109314 
	C205.077515,319.302246 200.450821,319.156616 196.956818,322.821228 
z"/>
<path fill="#000000" opacity="1.000000" stroke="none" 
	d="
M118.659454,313.878510 
	C118.661613,312.901459 118.663383,312.403290 118.663757,311.905151 
	C118.673454,298.836731 119.660645,298.010712 132.806519,299.836823 
	C134.627731,300.089844 136.119217,300.507782 135.992828,302.752106 
	C135.868134,304.966003 134.330902,305.367920 132.511368,305.382843 
	C130.851303,305.396484 129.189758,305.394409 127.531982,305.468842 
	C126.375977,305.520752 125.016754,305.528656 124.920227,307.112823 
	C124.826088,308.657867 125.731880,309.445190 127.268547,309.800781 
	C129.584167,310.336639 133.509445,308.559509 133.611496,312.605133 
	C133.720474,316.925842 129.682297,314.802643 127.453423,315.409393 
	C125.945793,315.819824 125.101883,316.539917 125.161819,318.133484 
	C125.222824,319.755371 126.152428,320.532898 127.705727,320.574371 
	C129.862610,320.632050 132.022614,320.588837 134.178329,320.668518 
	C135.672089,320.723694 136.764359,321.390900 136.747391,323.066437 
	C136.732239,324.562683 135.999313,325.784363 134.458969,325.833313 
	C129.985443,325.975433 125.503395,326.021973 121.029640,325.909363 
	C118.867203,325.854980 118.484886,324.145020 118.521805,322.325623 
	C118.575706,319.669739 118.613663,317.013519 118.659454,313.878510 
z"/>
<path fill="#000000" opacity="1.000000" stroke="none" 
	d="
M96.353096,312.347168 
	C93.722755,308.087189 93.992805,304.388367 97.585907,301.359497 
	C100.590958,298.826324 107.385292,298.870514 110.347893,301.183014 
	C111.828407,302.338654 112.416565,303.724152 111.483086,305.535248 
	C110.578735,307.289795 109.277733,307.084656 107.684120,306.585358 
	C105.655777,305.949860 103.408096,304.109467 101.439362,307.263306 
	C102.872932,309.835510 105.723083,310.123291 107.996696,311.205719 
	C111.720512,312.978577 113.908707,315.628601 113.063187,319.873016 
	C112.230057,324.055237 109.141830,325.899506 105.163498,326.248444 
	C102.004768,326.525452 98.819969,326.462616 96.038742,324.524994 
	C94.647110,323.555450 93.977226,322.311920 94.861229,320.690521 
	C95.674232,319.199371 96.867668,318.496429 98.574570,319.362335 
	C99.167679,319.663208 99.737686,320.062622 100.367851,320.227570 
	C102.280640,320.728241 104.776894,321.661285 105.730171,319.441925 
	C106.919044,316.674011 103.848373,316.566162 102.262222,315.754120 
	C100.346817,314.773529 98.231064,314.173676 96.353096,312.347168 
z"/>
<path fill="#000000" opacity="1.000000" stroke="none" 
	d="
M242.104370,136.336517 
	C247.051025,139.915344 248.617142,143.984146 246.819641,148.487717 
	C245.243805,152.435898 242.230865,154.383575 237.905518,154.355270 
	C233.213501,154.324600 230.494949,151.744949 229.195480,147.569946 
	C226.991135,140.487640 233.350571,134.751404 242.104370,136.336517 
z"/>
<path fill="#000000" opacity="1.000000" stroke="none" 
	d="
M122.495552,344.859711 
	C125.376945,342.947540 127.179054,344.391510 128.764496,346.263306 
	C130.345566,348.129913 131.802734,350.101501 134.096024,353.023071 
	C134.096024,350.035431 134.002274,348.274139 134.125259,346.528076 
	C134.226318,345.093475 134.893890,343.935547 136.582458,343.946106 
	C138.165253,343.955994 139.132034,344.839539 139.158768,346.392029 
	C139.238968,351.051880 139.553192,355.745483 139.121002,360.364624 
	C138.762817,364.192841 136.039398,363.358246 134.178772,361.568512 
	C131.937973,359.413086 130.167953,356.768188 127.577782,353.575409 
	C127.436996,356.162445 127.321014,357.899048 127.254105,359.637512 
	C127.190704,361.284637 126.757179,362.672028 124.822433,362.789948 
	C122.651306,362.922272 121.850082,361.574371 121.893059,359.646088 
	C122.000328,354.832825 121.401474,350.001587 122.495552,344.859711 
z"/>
<path fill="#000000" opacity="1.000000" stroke="none" 
	d="
M183.702118,343.895813 
	C186.608521,343.728088 189.103180,343.510712 191.550964,344.286682 
	C194.318741,345.164093 195.423111,347.000244 195.490097,349.906830 
	C195.546661,352.362061 192.848907,353.895386 193.627716,356.435760 
	C194.246216,358.453278 196.439926,359.795959 196.201691,362.199158 
	C192.539597,363.295898 192.539597,363.295898 187.458939,358.184875 
	C186.289627,358.321228 186.423355,359.274628 186.370697,360.037659 
	C186.254318,361.724335 185.712646,363.059967 183.742844,362.938568 
	C181.733765,362.814789 181.499237,361.319458 181.514114,359.694702 
	C181.552277,355.529449 181.560104,351.363892 181.590042,347.198547 
	C181.599838,345.836273 181.655228,344.482025 183.702118,343.895813 
z"/>
<path fill="#000000" opacity="1.000000" stroke="none" 
	d="
M221.055969,362.510071 
	C218.591415,356.875244 219.081604,351.075317 220.145309,345.749847 
	C220.891403,342.014587 225.537750,343.765839 228.424515,343.999023 
	C231.879807,344.278107 234.380646,346.850433 233.165070,350.150482 
	C231.551590,354.530823 231.764755,358.221863 235.010178,361.888184 
	C229.493561,364.479370 228.087753,360.325623 225.609634,357.289215 
	C224.603363,359.649902 225.572403,363.495239 221.055969,362.510071 
z"/>
<path fill="#000000" opacity="1.000000" stroke="none" 
	d="
M284.487000,300.791840 
	C285.858490,306.052216 285.275238,311.060638 285.246033,316.029083 
	C285.225555,319.505524 286.335632,321.018951 289.897614,320.459778 
	C291.034424,320.281311 292.224121,320.435974 293.389587,320.445221 
	C294.848846,320.456757 296.035522,320.816650 296.203583,322.566437 
	C296.370026,324.299713 295.792542,325.736267 293.958588,325.804169 
	C289.808563,325.957764 285.641510,325.990692 281.495636,325.784973 
	C279.129700,325.667603 278.817627,323.688141 278.824341,321.720062 
	C278.844269,315.890625 278.879974,310.060913 278.844116,304.231720 
	C278.820221,300.351471 280.481567,299.014008 284.487000,300.791840 
z"/>
<path fill="#000000" opacity="1.000000" stroke="none" 
	d="
M202.358429,344.130310 
	C204.926865,343.903107 207.091934,343.665192 209.216507,343.862793 
	C212.542801,344.172119 214.841354,346.005096 215.193924,349.446655 
	C215.535461,352.780396 214.051880,355.311066 210.738632,356.302063 
	C208.253052,357.045502 205.996094,357.657532 205.978424,360.960663 
	C205.971542,362.247986 204.779953,362.896301 203.483261,362.871246 
	C202.184998,362.846130 201.034042,362.136108 201.034821,360.867096 
	C201.038223,355.338470 199.617447,349.716919 202.358429,344.130310 
z"/>
<path fill="#000000" opacity="1.000000" stroke="none" 
	d="
M170.503784,349.991638 
	C171.822113,351.442078 174.675720,350.011139 174.978134,352.580231 
	C175.415253,356.293549 170.819778,354.280151 169.778030,356.504303 
	C170.926025,358.329285 172.589600,357.557159 173.963181,357.745667 
	C175.555038,357.964111 176.995331,358.303772 177.048828,360.264282 
	C177.111572,362.563568 175.475693,362.906128 173.691010,362.950897 
	C171.865677,362.996704 170.038010,362.961853 168.213440,363.023315 
	C164.971359,363.132446 163.772842,361.419739 163.870361,358.382599 
	C163.934235,356.392822 163.849457,354.398590 163.845596,352.406311 
	C163.827988,343.313477 164.398743,342.811951 173.454544,343.773438 
	C174.974503,343.934814 176.618851,343.958069 176.846939,345.920807 
	C177.095108,348.056152 175.671295,348.791046 173.820084,349.056152 
	C172.699905,349.216553 171.595764,349.488892 170.503784,349.991638 
z"/>
<path fill="#000000" opacity="1.000000" stroke="none" 
	d="
M108.257797,363.015289 
	C105.740135,362.860046 104.907219,361.584045 104.895615,359.686035 
	C104.870255,355.536560 104.880692,351.386505 104.923737,347.237183 
	C104.943001,345.381226 105.658188,343.817139 107.751884,343.890411 
	C110.792854,343.996857 114.217018,342.579529 116.732056,345.117035 
	C117.840340,346.235229 117.293015,347.948090 115.542305,348.734131 
	C114.207947,349.333282 112.541809,348.543579 111.084480,349.962067 
	C112.389671,351.405518 115.940430,350.301025 115.547180,353.425446 
	C115.200615,356.179047 112.053642,354.622955 110.655800,356.275024 
	C111.514496,358.413269 113.399040,357.718597 114.850517,357.870239 
	C116.664719,358.059753 117.606514,358.928528 117.483505,360.755341 
	C117.368408,362.464600 116.101913,362.891479 114.684029,362.945923 
	C112.694214,363.022308 110.700790,363.004517 108.257797,363.015289 
z"/>
<path fill="#000000" opacity="1.000000" stroke="none" 
	d="
M278.919128,353.067139 
	C278.275360,356.252472 274.851013,354.378418 273.734009,356.492798 
	C274.666077,358.624115 276.605804,357.614075 278.069397,357.901062 
	C279.659180,358.212799 280.353607,359.088928 280.356079,360.624847 
	C280.358795,362.328247 279.302887,362.957001 277.795197,362.979340 
	C275.641144,363.011261 273.485870,362.971130 271.331238,362.949188 
	C268.925659,362.924652 267.670715,361.805206 267.699066,359.293610 
	C267.740234,355.647369 267.833252,351.992188 267.635193,348.355469 
	C267.444611,344.854919 268.975677,343.468170 272.330383,343.759369 
	C272.659180,343.787903 273.006348,343.696075 273.322510,343.764374 
	C275.670776,344.271454 279.340668,342.252197 279.994446,346.041656 
	C280.733948,350.327942 276.009186,348.096191 274.274139,349.859528 
	C275.322205,351.690979 278.465393,350.071259 278.919128,353.067139 
z"/>
<path fill="#000000" opacity="1.000000" stroke="none" 
	d="
M289.404846,355.347473 
	C285.545685,353.671692 282.948151,351.523041 284.801300,347.183502 
	C286.172302,343.973053 290.997192,342.556366 294.851837,344.091217 
	C296.457458,344.730560 298.041138,345.578308 297.372986,347.720612 
	C296.787598,349.597412 295.234985,349.440369 293.655396,349.180878 
	C292.605347,349.008362 291.554108,347.962372 290.136139,349.285370 
	C291.929626,350.328857 293.615631,351.281403 295.273285,352.281006 
	C297.691528,353.739288 298.785278,355.842438 297.928162,358.616974 
	C296.975372,361.701233 294.677307,363.105621 291.529236,363.240601 
	C288.763275,363.359222 286.190765,362.918823 284.393433,360.532379 
	C283.823334,359.775421 284.036957,358.930634 284.564148,358.222412 
	C285.206146,357.359985 286.046692,356.978333 287.172638,357.234283 
	C288.670471,357.574799 290.045380,359.280426 291.800812,357.666138 
	C292.186096,355.946960 290.506653,356.106964 289.404846,355.347473 
z"/>
<path fill="#000000" opacity="1.000000" stroke="none" 
	d="
M256.302551,357.999939 
	C256.722290,355.253082 254.412933,355.751831 253.109375,355.127716 
	C250.537720,353.896545 248.616333,352.321320 248.701050,349.149963 
	C248.767227,346.672241 250.054276,345.007294 252.248169,344.231445 
	C255.171127,343.197723 258.310516,342.994812 260.790466,345.080597 
	C262.766022,346.742157 261.690399,348.493866 259.580261,349.079834 
	C258.248291,349.449707 256.688385,348.998688 254.737061,348.887878 
	C255.992783,350.880096 257.930725,351.094910 259.393341,351.951599 
	C261.718811,353.313629 263.408478,355.093567 262.901154,357.950745 
	C262.388763,360.836395 260.573486,362.715668 257.578705,363.123566 
	C254.514160,363.540955 251.577927,363.211823 249.295502,360.814697 
	C248.666763,360.154358 248.769562,359.262634 249.245941,358.501251 
	C249.835495,357.558990 250.732101,357.254181 251.814606,357.408142 
	C253.249954,357.612244 254.485748,358.931396 256.302551,357.999939 
z"/>
<path fill="#000000" opacity="1.000000" stroke="none" 
	d="
M356.235840,350.681427 
	C359.466919,344.243317 365.536133,341.735352 370.184082,344.664398 
	C371.424133,345.445831 373.050476,346.378571 372.385498,348.121277 
	C371.668213,350.001099 370.000580,350.270264 368.254883,349.272522 
	C365.744629,347.837891 363.812988,348.536224 362.284332,350.817535 
	C361.013153,352.714600 361.133789,354.586975 362.507477,356.359344 
	C364.074982,358.381775 365.989777,358.730865 368.212189,357.422089 
	C369.843140,356.461609 371.484619,356.202026 372.363037,358.280609 
	C373.241882,360.360107 371.587311,361.308624 370.114624,362.099274 
	C366.918732,363.815094 363.620697,363.727753 360.612274,361.815338 
	C356.710297,359.334869 355.311371,355.603302 356.235840,350.681427 
z"/>
<path fill="#000000" opacity="1.000000" stroke="none" 
	d="
M340.332275,344.261139 
	C342.982758,343.650879 344.241516,344.576111 344.318146,346.892517 
	C344.383728,348.874451 344.500366,350.873932 344.320099,352.840515 
	C344.002502,356.305267 345.029846,358.268280 348.918823,357.925690 
	C350.633545,357.774658 352.456970,358.114502 352.543243,360.332642 
	C352.647217,363.005951 350.498322,362.853027 348.687378,362.986145 
	C348.522766,362.998230 348.356659,362.988190 348.191559,362.995148 
	C338.887451,363.387054 338.800049,363.385986 338.918945,354.142456 
	C338.960480,350.912872 338.008087,347.519104 340.332275,344.261139 
z"/>
<path fill="#000000" opacity="1.000000" stroke="none" 
	d="
M144.459259,346.708191 
	C144.565170,344.061737 146.168991,343.785461 147.941635,343.769836 
	C150.431976,343.747925 152.924057,343.688721 155.412369,343.756653 
	C157.031174,343.800812 158.897446,343.614197 159.323151,345.890991 
	C159.731827,348.076721 158.301590,348.629059 156.586624,349.277527 
	C153.070465,350.607117 154.969589,353.821106 154.417221,356.204132 
	C153.885300,358.498840 156.262787,362.570068 152.286942,362.729889 
	C147.665985,362.915619 149.435715,358.390839 149.792068,356.223602 
	C150.587891,351.383789 147.716400,349.284973 144.459259,346.708191 
z"/>
<path fill="#000000" opacity="1.000000" stroke="none" 
	d="
M321.993896,346.477173 
	C322.561554,344.283936 323.728485,343.605347 325.449219,344.114471 
	C327.004059,344.574493 327.216064,345.927704 327.247528,347.301788 
	C327.281647,348.791016 327.386444,350.290222 327.265472,351.769135 
	C326.960632,355.494293 327.411957,358.445831 332.302307,358.054169 
	C333.806702,357.933655 334.841461,358.876099 334.789032,360.495514 
	C334.736298,362.123505 333.570709,362.790955 332.127625,362.879913 
	C330.147919,363.002045 328.158051,362.948792 326.174377,363.021179 
	C323.260193,363.127533 321.912354,361.727020 321.933502,358.840332 
	C321.962616,354.867767 321.933685,350.894806 321.993896,346.477173 
z"/>
<path fill="#000000" opacity="1.000000" stroke="none" 
	d="
M219.623505,310.975159 
	C219.638947,308.003235 219.646866,305.518127 219.673996,303.033264 
	C219.695312,301.079956 220.497574,299.865509 222.650009,299.962555 
	C224.495300,300.045776 225.309998,301.099091 225.320953,302.849701 
	C225.363495,309.642426 225.380188,316.435333 225.424545,323.228027 
	C225.436981,325.133850 224.390900,325.892212 222.633194,325.929138 
	C220.573257,325.972382 219.580078,324.915588 219.582947,322.892578 
	C219.588333,319.082428 219.609604,315.272278 219.623505,310.975159 
z"/>
<path fill="#000000" opacity="1.000000" stroke="none" 
	d="
M244.282257,350.146820 
	C244.278503,353.611084 244.274765,356.599792 244.274429,359.588501 
	C244.274231,361.512268 243.576660,362.883728 241.412018,362.783142 
	C239.500153,362.694244 238.952637,361.286713 238.922272,359.667328 
	C238.860046,356.347717 238.763062,353.020996 238.914963,349.707947 
	C239.012573,347.579132 237.967056,344.309448 241.336517,344.114014 
	C245.312241,343.883392 243.908020,347.458862 244.282257,350.146820 
z"/>
<path fill="#000000" opacity="1.000000" stroke="none" 
	d="
M173.954773,320.087952 
	C177.536377,323.476868 177.006744,328.324249 173.227432,330.498627 
	C172.059631,331.170471 171.000839,331.324097 170.189285,330.108673 
	C169.141754,328.539886 171.704681,321.076843 173.954773,320.087952 
z"/>
<path fill="#000000" opacity="1.000000" stroke="none" 
	d="
M257.148987,327.224304 
	C257.301178,326.725800 257.371155,326.559814 257.355560,326.402313 
	C257.123688,324.062927 255.732849,321.117615 259.275360,320.274841 
	C261.787933,319.677063 262.838470,321.923004 262.870880,323.953583 
	C262.920135,327.042755 261.989532,330.219208 258.577179,330.900757 
	C255.807526,331.453918 256.605438,329.147064 257.148987,327.224304 
z"/>
<path fill="#000000" opacity="1.000000" stroke="none" 
	d="
M301.800507,365.863861 
	C302.025604,363.624237 302.809357,361.820007 302.305786,359.755157 
	C301.997070,358.489319 303.130585,357.723328 304.302551,357.339203 
	C305.377228,356.986969 306.246368,357.428986 306.907288,358.231476 
	C308.570648,360.251221 307.868896,362.313446 306.668762,364.145142 
	C305.604980,365.768768 304.723480,368.438019 301.800507,365.863861 
z"/>
</svg>