<svg version="1.1" id="Layer_1" xmlns="http://www.w3.org/2000/svg" xmlns:xlink="http://www.w3.org/1999/xlink" x="0px" y="0px"
	 width="100%" viewBox="0 0 416 368" enable-background="new 0 0 416 368" xml:space="preserve">
<path fill="#000000" opacity="1.000000" stroke="none" 
	d="
M119.617233,165.993820 
	C115.825859,157.612915 111.601570,150.144028 102.018051,147.891830 
	C95.838631,146.439636 90.918892,148.499771 89.149162,153.350143 
	C87.456467,157.989410 89.357056,161.970352 95.123558,164.883148 
	C99.422485,167.054657 103.934784,168.804825 108.358147,170.728622 
	C113.133949,172.805756 117.674530,175.319366 121.119194,179.282043 
	C126.624702,185.615509 127.841293,192.982101 124.939278,200.747070 
	C121.908691,208.856079 115.047859,212.333847 107.050545,213.149063 
	C99.447014,213.924164 91.626305,214.082077 84.487839,210.634781 
	C81.422218,209.154358 79.510284,211.561218 77.080116,211.850388 
	C74.702507,207.370667 73.946518,194.979324 75.763329,189.341095 
	C78.372353,189.840714 78.613373,192.291458 79.550911,194.017471 
	C85.248360,204.506531 95.145096,209.536209 104.564903,206.772308 
	C108.822655,205.523056 111.566658,202.821426 112.353928,198.550339 
	C113.058235,194.729294 110.893120,191.834473 108.170944,189.466888 
	C105.498390,187.142471 102.173668,185.921417 98.974480,184.510452 
	C95.321640,182.899414 91.571274,181.462479 88.064804,179.575424 
	C77.613983,173.951233 73.053993,164.125900 76.123535,154.333588 
	C78.972916,145.243607 89.056595,139.544418 100.289711,140.909409 
	C104.067474,141.368469 107.892578,141.904663 111.450882,143.429977 
	C113.687241,144.388626 115.799217,144.728470 118.110809,143.444275 
	C120.533783,142.098190 121.995232,143.207687 122.140312,145.815994 
	C122.482079,151.960510 122.787201,158.110779 122.891937,164.262375 
	C122.921310,165.987320 122.695503,168.490051 119.617233,165.993820 
z"/>
<path fill="#000000" opacity="1.000000" stroke="none" 
	d="
M139.866272,208.871338 
	C143.076691,206.911331 143.916611,204.262558 143.902252,201.010727 
	C143.833069,185.345428 143.623337,169.673630 144.009430,154.017609 
	C144.130493,149.107941 140.473862,147.314377 138.184372,144.490067 
	C139.224304,142.095398 141.128525,142.725693 142.646683,142.719971 
	C157.312164,142.664688 171.978806,142.773727 186.642990,142.625717 
	C190.235596,142.589447 191.964874,143.810516 191.870560,147.433563 
	C191.744812,152.264908 193.078903,157.196213 191.484451,161.940201 
	C188.772369,161.786407 188.283691,159.984512 187.525528,158.590424 
	C183.931854,151.982452 178.831375,148.782166 170.913559,149.138962 
	C159.319031,149.661453 159.300812,149.259720 159.309296,160.867569 
	C159.310150,162.034149 159.056595,163.273773 159.363541,164.353745 
	C160.317062,167.708725 156.707138,172.609695 161.886368,174.385864 
	C168.272873,176.576019 174.104752,174.216904 177.517334,169.059540 
	C177.858871,168.543411 178.349060,168.125641 178.822372,167.604874 
	C180.622314,170.688309 180.984482,181.251083 179.600754,186.890503 
	C178.631729,187.268936 178.097961,186.734497 177.571060,186.004166 
	C173.769135,180.734573 168.153976,178.816528 161.887680,180.427475 
	C159.800873,180.963959 159.345444,182.314896 159.342850,184.118896 
	C159.334198,190.118439 159.378525,196.118484 159.308563,202.117264 
	C159.279022,204.649445 160.357407,205.760208 162.891571,205.718552 
	C167.556610,205.641861 172.250427,205.984589 176.882751,205.582382 
	C182.827072,205.066254 186.821579,201.396439 189.769180,196.389801 
	C190.825073,194.596329 191.158981,192.226852 193.335846,191.290344 
	C195.049622,191.522049 195.281769,192.791290 195.070190,193.906082 
	C194.161987,198.691483 194.383942,203.529968 194.198334,208.348373 
	C194.096634,210.988907 192.852982,212.257065 190.139908,212.250809 
	C173.974503,212.213531 157.808746,212.262817 141.643768,212.169464 
	C140.006683,212.160034 136.492874,212.645844 139.866272,208.871338 
z"/>
<path fill="#000000" opacity="1.000000" stroke="none" 
	d="
M269.491760,201.442490 
	C270.953918,206.043869 275.420959,207.475739 278.718384,211.535919 
	C268.305115,211.535919 258.850433,211.535919 249.351517,211.535919 
	C249.453857,209.563507 250.639206,209.095688 251.558487,208.459747 
	C254.295578,206.566299 254.756622,204.310944 253.623688,201.122543 
	C249.795120,190.347824 249.897415,190.311264 238.429413,190.336838 
	C236.931396,190.340164 235.433365,190.349304 233.935349,190.352036 
	C224.701218,190.368912 224.945984,190.454681 221.891586,199.135223 
	C219.818542,205.026733 222.515091,208.169205 227.561829,210.926208 
	C219.702850,212.720215 212.256348,212.434616 204.823090,211.855469 
	C204.754318,210.897888 204.609543,210.355682 204.725937,210.292191 
	C211.636841,206.521606 213.666275,199.636688 216.148376,192.908340 
	C220.811020,180.269135 225.817444,167.757065 230.534515,155.137421 
	C231.886139,151.521378 234.435822,147.754669 229.346802,143.548889 
	C235.378143,142.250565 240.155334,142.276947 244.737518,143.149048 
	C247.325592,143.641632 247.624756,146.993835 248.534393,149.240112 
	C255.525848,166.504990 262.428406,183.805893 269.491760,201.442490 
M237.623489,159.737625 
	C237.516495,159.610291 237.431519,159.444962 237.296188,159.366577 
	C237.166489,159.291473 236.895889,159.228409 236.838409,159.293533 
	C235.022812,161.350571 234.647583,164.063736 233.708572,166.497223 
	C231.652634,171.825241 229.877655,177.261642 227.758072,183.309677 
	C234.549240,183.816086 240.201324,184.025757 246.674667,183.182983 
	C243.550095,175.082016 240.698792,167.689499 237.623489,159.737625 
z"/>
<path fill="#000000" opacity="1.000000" stroke="none" 
	d="
M318.136780,205.743576 
	C321.108459,205.734985 323.605530,205.673065 326.099884,205.730377 
	C333.002106,205.888931 337.676788,202.467621 341.087738,196.745117 
	C342.577362,194.245987 343.163422,191.163895 345.375488,189.233398 
	C347.615295,189.719971 347.282379,191.304138 347.230530,192.500885 
	C347.058044,196.483276 346.413727,200.465012 346.501129,204.434860 
	C346.695740,213.275787 345.523956,212.192886 337.819183,212.220078 
	C323.343292,212.271164 308.866943,212.271011 294.391144,212.212677 
	C292.519287,212.205139 290.390472,212.927322 288.845184,211.173752 
	C288.884277,210.739975 288.815948,210.199799 288.955170,210.139587 
	C295.213593,207.433472 296.015594,202.377533 295.804047,196.224640 
	C295.409729,184.757050 295.684509,173.266418 295.683136,161.785370 
	C295.681854,151.221008 295.683197,151.221008 288.814880,143.334686 
	C298.708191,143.334686 308.027710,143.334686 317.337982,143.334686 
	C317.337982,144.192062 317.448364,144.740097 317.322205,144.801407 
	C310.122375,148.300339 310.966248,154.787628 311.030060,161.137344 
	C311.157166,173.781754 311.063293,186.428375 311.059204,199.074081 
	C311.057068,205.641800 311.055603,205.641800 318.136780,205.743576 
z"/>
<path fill="#000000" opacity="1.000000" stroke="none" 
	d="
M268.024323,98.830887 
	C268.727203,98.869011 269.056061,98.917892 269.375519,99.002419 
	C271.940918,99.681168 272.573608,103.972313 275.706146,102.977325 
	C278.325714,102.145256 278.929352,98.907684 280.593964,96.857475 
	C288.069702,87.649918 288.159912,87.611717 294.895538,97.071053 
	C300.782104,105.337929 306.676788,113.599007 312.572906,121.859039 
	C313.738678,123.492172 315.128448,125.106293 314.146393,127.292503 
	C313.075989,129.675446 310.777344,129.871490 308.612915,129.874054 
	C290.804382,129.895248 272.995209,129.908356 255.187775,129.750809 
	C252.854980,129.730164 249.881165,130.149124 248.549469,127.337296 
	C247.164825,124.413696 249.266815,122.274147 250.758728,120.128166 
	C254.651306,114.529022 258.589264,108.960640 262.576019,103.428207 
	C263.921448,101.561134 265.148560,99.482521 268.024323,98.830887 
M274.504120,116.010796 
	C272.718994,115.916901 271.402374,114.957703 270.218719,113.724632 
	C268.457642,111.890030 266.651276,111.791100 265.342072,114.080353 
	C264.226440,116.031128 262.225220,117.542534 262.020111,120.542709 
	C274.773712,120.542709 287.368225,120.542709 301.244232,120.542709 
	C296.411377,113.851852 293.050690,107.548256 287.543976,102.285637 
	C285.439453,104.821815 283.884430,106.741974 282.279083,108.619118 
	C280.076721,111.194389 279.281555,115.122292 274.504120,116.010796 
z"/>
<path fill="#000000" opacity="1.000000" stroke="none" 
	d="
M145.327759,296.640442 
	C163.953812,308.924591 183.950577,315.903992 206.008148,316.608521 
	C236.063538,317.568542 262.070618,307.300507 284.974640,288.290863 
	C287.356415,286.314056 290.227142,282.167847 293.252777,285.778717 
	C296.529480,289.689209 291.620605,291.789886 289.233612,293.872772 
	C267.334900,312.981659 241.743790,323.241425 212.750687,323.804535 
	C180.429672,324.432251 152.070923,313.504852 127.851089,292.029907 
	C125.995369,290.384521 123.588219,288.387756 125.942032,285.781189 
	C128.415741,283.041870 130.674774,285.241425 132.812347,286.945953 
	C136.844330,290.161163 140.955185,293.277435 145.327759,296.640442 
z"/>
<path fill="#000000" opacity="1.000000" stroke="none" 
	d="
M189.473328,77.423508 
	C184.195129,74.991837 179.015350,74.026268 173.591827,74.355339 
	C167.821777,74.705421 163.828491,71.252899 159.752625,67.821526 
	C177.923065,65.769814 195.665039,65.076889 208.892929,82.375381 
	C221.745987,64.438995 239.959671,66.296600 258.087311,67.550919 
	C254.150208,71.196648 250.213974,74.693291 244.292236,74.378975 
	C236.581833,73.969727 229.338409,75.564865 223.068237,80.203270 
	C220.818314,81.867661 216.858261,83.216309 219.767838,87.489563 
	C220.295410,88.264389 219.536591,89.030487 218.996826,89.675682 
	C214.201981,95.407181 200.079208,96.852509 193.904846,91.909584 
	C196.110870,90.675560 198.189957,89.512543 200.513687,88.212677 
	C198.733292,82.674507 194.176285,80.221649 189.473328,77.423508 
z"/>
<path fill="#000000" opacity="1.000000" stroke="none" 
	d="
M117.688019,100.919296 
	C126.369209,105.527046 134.462143,106.066650 143.207062,101.533508 
	C149.735443,98.149353 156.550339,100.329956 162.822495,103.574188 
	C164.840424,104.617943 165.850220,106.315361 164.773865,108.526093 
	C163.786636,110.553757 161.623596,110.926323 160.040253,109.958824 
	C152.634979,105.433823 145.735199,107.643166 138.668671,110.843925 
	C132.626892,113.580536 126.504219,112.583206 120.799683,109.764755 
	C114.845757,106.823112 109.101326,106.318733 103.141121,109.503983 
	C101.055542,110.618546 98.846230,110.884193 97.526711,108.398636 
	C96.143135,105.792427 97.999252,104.312538 99.953712,103.225601 
	C105.400330,100.196556 111.180351,99.207825 117.688019,100.919296 
z"/>
<path fill="#000000" opacity="1.000000" stroke="none" 
	d="
M150.236786,121.303513 
	C145.557465,122.658112 141.330414,124.151268 137.008011,125.278946 
	C131.318665,126.763222 125.737267,125.906448 120.504120,123.402489 
	C114.865616,120.704582 109.364838,120.570740 103.719086,123.260025 
	C101.415436,124.357338 98.712585,125.432915 97.399078,122.117889 
	C96.107025,118.857002 98.969444,117.756248 101.168190,116.723618 
	C108.215370,113.413918 115.443970,113.736717 122.412300,116.703941 
	C128.808792,119.427666 134.827454,119.398041 141.151764,116.546944 
	C147.663208,113.611473 154.403534,113.755516 160.987167,116.550301 
	C163.445236,117.593773 166.400467,118.922577 164.794922,122.316238 
	C163.367905,125.332558 160.660141,124.268127 158.299789,123.144905 
	C155.877487,121.992210 153.402023,121.062996 150.236786,121.303513 
z"/>
<path fill="#000000" opacity="1.000000" stroke="none" 
	d="
M206.241852,308.969574 
	C205.865997,308.589203 205.754120,308.466583 205.637466,308.348694 
	C196.330505,298.943207 196.530533,297.057495 207.370743,289.112091 
	C209.324051,287.680389 210.920013,287.533234 212.584641,289.336090 
	C213.259781,290.067291 213.918900,290.813599 214.603485,291.535797 
	C222.958572,300.349884 222.636276,302.887482 212.533600,310.204590 
	C210.005264,312.035797 208.261917,311.097778 206.241852,308.969574 
z"/>
<path fill="#000000" opacity="1.000000" stroke="none" 
	d="
M211.142654,246.051880 
	C208.002716,246.980988 206.735657,245.831451 206.760757,242.995041 
	C206.785690,240.175934 206.554291,237.337708 206.812439,234.542679 
	C207.031387,232.172073 205.357605,228.533081 209.254700,227.973267 
	C213.425766,227.374115 217.985474,226.725281 221.223160,230.742126 
	C222.334427,232.120819 222.951309,234.119415 222.034637,235.406631 
	C219.484787,238.987213 219.356583,242.231689 222.849243,245.307526 
	C217.234802,249.312454 216.314468,242.942490 213.385971,241.837082 
	C211.727310,242.870758 212.706375,244.873550 211.142654,246.051880 
z"/>
<path fill="#000000" opacity="1.000000" stroke="none" 
	d="
M318.746826,245.180466 
	C317.918213,245.543823 317.473694,245.812759 316.993530,245.916046 
	C307.100250,248.043793 305.888824,247.216949 306.194824,237.242828 
	C306.293884,234.014053 303.969360,229.385788 309.056793,227.894852 
	C314.661621,226.252289 320.577301,228.673660 322.638153,232.776718 
	C324.715271,236.912201 323.399078,241.481155 318.746826,245.180466 
M311.367462,235.149628 
	C311.847198,237.329773 309.812927,240.458374 313.275421,241.468307 
	C315.155884,242.016785 316.827240,240.691650 317.559662,238.838516 
	C318.347687,236.844711 318.164795,234.798737 316.265045,233.499069 
	C314.528564,232.311081 312.588959,231.571381 311.367462,235.149628 
z"/>
<path fill="#000000" opacity="1.000000" stroke="none" 
	d="
M284.712219,230.423950 
	C286.140594,226.591782 288.242065,227.466537 290.074097,229.334641 
	C291.893768,231.190094 293.359375,233.392838 295.092651,235.585480 
	C296.551392,233.741989 295.668274,231.814728 296.149872,230.129272 
	C296.567444,228.667816 297.304291,227.773209 298.944000,227.929367 
	C300.339355,228.062256 301.088684,228.936844 301.110992,230.216766 
	C301.192047,234.864471 301.183136,239.514069 301.169159,244.162857 
	C301.165863,245.259079 300.609344,246.083328 299.492249,246.334732 
	C297.881500,246.697281 296.552582,246.195312 295.544983,244.867447 
	C293.854126,242.639145 292.156708,240.415787 289.333252,238.300339 
	C289.333252,240.139709 289.342468,241.979126 289.330383,243.818420 
	C289.320618,245.306732 288.912994,246.461899 287.088531,246.379242 
	C285.456329,246.305267 284.688965,245.395828 284.681519,243.829102 
	C284.661011,239.510406 284.671234,235.191559 284.712219,230.423950 
z"/>
<path fill="#000000" opacity="1.000000" stroke="none" 
	d="
M123.811844,234.194916 
	C126.126167,234.372147 128.667267,234.330170 128.408661,237.109909 
	C128.053604,240.926392 124.167458,238.313019 122.153503,240.199905 
	C123.709511,241.663666 125.776451,241.230438 127.529465,241.644699 
	C128.935577,241.976974 130.088547,242.471161 130.036377,244.166916 
	C129.986176,245.798828 128.881042,246.602066 127.465508,246.665512 
	C124.662544,246.791153 121.846062,246.766708 119.041237,246.653732 
	C116.594452,246.555176 115.638145,245.084778 115.687737,242.694031 
	C115.763336,239.050262 115.757942,235.402588 115.683830,231.758667 
	C115.630615,229.142242 116.586388,227.660950 119.409584,227.736160 
	C121.727501,227.797897 124.048996,227.713760 126.367920,227.752777 
	C127.904022,227.778610 129.527863,227.914154 129.604706,229.963593 
	C129.681198,232.004608 128.147858,232.216583 126.565659,232.391937 
	C124.815163,232.585922 122.933067,231.869675 121.286903,233.030609 
	C121.389763,234.751526 122.649628,234.059662 123.811844,234.194916 
z"/>
<path fill="#000000" opacity="1.000000" stroke="none" 
	d="
M137.598267,234.628540 
	C138.369614,232.732468 138.803040,231.070908 139.681396,229.692993 
	C141.412674,226.977020 144.284546,226.685608 145.704346,229.255875 
	C148.548828,234.405273 150.564880,240.012283 153.013702,245.638931 
	C150.255173,246.783707 148.590332,246.958740 146.970154,245.050919 
	C144.419525,242.047409 141.488205,242.323853 138.855789,244.868225 
	C137.517731,246.161545 136.150421,247.195068 134.531693,246.232803 
	C132.524796,245.039841 133.894043,243.309616 134.494156,241.849884 
	C135.441147,239.546356 136.468277,237.275787 137.598267,234.628540 
z"/>
<path fill="#000000" opacity="1.000000" stroke="none" 
	d="
M189.109406,236.988556 
	C190.322311,240.069351 191.384933,242.798050 192.468185,245.579681 
	C190.004349,246.747025 188.405594,246.736588 186.721222,244.923080 
	C184.146683,242.151184 181.065735,242.217453 178.509354,244.856995 
	C176.821075,246.600204 175.419968,247.081146 173.172882,245.576660 
	C174.591476,240.112473 176.889038,234.983093 179.341827,229.965317 
	C180.937485,226.701004 184.487213,226.925720 186.225113,230.229065 
	C187.302734,232.277390 188.058777,234.494888 189.109406,236.988556 
z"/>
<path fill="#000000" opacity="1.000000" stroke="none" 
	d="
M279.544922,242.369781 
	C280.067383,243.768707 280.904022,244.969376 279.721832,245.870239 
	C278.586151,246.735672 277.008636,246.696655 276.042572,245.700500 
	C272.382355,241.926239 269.063721,242.049377 265.579041,245.974045 
	C264.693695,246.971176 263.117188,246.675674 260.917480,245.542099 
	C263.232300,240.114914 265.153473,234.347427 268.116089,229.176605 
	C269.689758,226.429947 272.847351,227.029327 274.341370,230.155945 
	C276.194763,234.034653 277.727875,238.066391 279.544922,242.369781 
z"/>
<path fill="#000000" opacity="1.000000" stroke="none" 
	d="
M111.357224,242.423187 
	C108.096748,246.819962 103.750519,248.004410 99.491570,245.919403 
	C98.145081,245.260208 96.578369,244.487015 97.118546,242.629349 
	C97.649338,240.804016 99.123665,240.770660 100.775192,241.248672 
	C102.094070,241.630371 103.549286,242.575119 104.890472,241.019638 
	C104.097878,238.903076 101.946854,239.092117 100.416046,238.345795 
	C98.099228,237.216278 96.599442,235.620743 96.878365,232.933517 
	C97.172119,230.103378 98.981827,228.498489 101.642578,227.861954 
	C102.595016,227.634094 103.629509,227.621719 104.615265,227.685471 
	C107.133873,227.848389 110.624825,228.172714 110.422653,231.017258 
	C110.126190,235.188385 106.726227,232.528168 104.560432,232.454681 
	C104.106041,232.439285 103.644096,232.646637 102.594940,232.886215 
	C105.986679,235.924316 112.624573,235.494949 111.357224,242.423187 
z"/>
<path fill="#000000" opacity="1.000000" stroke="none" 
	d="
M245.560760,228.731506 
	C248.939667,227.099823 250.212265,228.413605 250.249344,231.475906 
	C250.269470,233.137680 250.417206,234.813095 250.259918,236.458725 
	C249.908844,240.132446 250.957748,242.260818 255.161469,241.760452 
	C256.587616,241.590698 258.348267,241.560883 258.455658,243.775391 
	C258.562714,245.982162 257.181396,246.603119 255.272430,246.649902 
	C254.277328,246.674286 253.286087,246.840012 252.290771,246.874710 
	C245.145187,247.123856 244.719391,246.754333 244.819092,239.490402 
	C244.866730,236.019592 244.337921,232.513596 245.560760,228.731506 
z"/>
<path fill="#000000" opacity="1.000000" stroke="none" 
	d="
M180.068207,261.681213 
	C182.047989,265.439240 177.559830,269.013306 180.901505,272.236969 
	C177.483429,274.615692 176.251328,271.608917 174.391922,270.219788 
	C172.790359,270.568573 173.499207,273.745789 171.112045,273.044556 
	C168.956284,272.411255 169.382233,270.537872 169.320541,268.930939 
	C169.295166,268.269775 169.210464,267.602203 169.269135,266.947998 
	C169.483398,264.558533 168.569458,261.227997 171.026749,260.215393 
	C173.747620,259.094147 177.204727,258.748932 180.068207,261.681213 
z"/>
<path fill="#000000" opacity="1.000000" stroke="none" 
	d="
M131.667542,271.266235 
	C129.502930,274.237000 128.214432,273.414673 127.822624,270.583557 
	C127.530617,268.473572 127.660789,266.293854 127.728180,264.149139 
	C127.777710,262.572479 127.330055,260.627319 129.464981,259.985016 
	C131.436249,259.391937 132.446014,260.916687 133.527145,262.169922 
	C133.949753,262.659790 134.414200,263.113556 134.935059,263.663422 
	C136.570175,262.716583 135.833267,259.114777 138.731827,260.059784 
	C141.028305,260.808472 140.461990,263.129242 140.239792,264.780273 
	C139.867462,267.547089 141.912674,271.496094 138.517792,272.823853 
	C135.310394,274.078278 134.804367,269.272339 132.127808,268.096283 
	C132.006500,269.089783 131.893707,270.013672 131.667542,271.266235 
z"/>
<path fill="#000000" opacity="1.000000" stroke="none" 
	d="
M202.513260,270.665985 
	C200.842819,270.948517 201.155228,274.027191 198.779419,272.977753 
	C196.997086,272.190491 197.606674,270.445129 197.576218,269.009613 
	C197.551514,267.845093 197.458267,266.662201 197.616562,265.518066 
	C197.889664,263.544220 196.604935,260.757477 199.524368,259.990295 
	C201.885376,259.369843 204.610703,259.026550 206.761993,260.624603 
	C208.997894,262.285492 208.895416,264.827057 207.587631,266.922668 
	C206.212219,269.126648 208.832031,270.654236 208.049026,272.670074 
	C205.566513,274.175629 204.078857,272.715820 202.513260,270.665985 
z"/>
<path fill="#000000" opacity="1.000000" stroke="none" 
	d="
M240.602417,266.659241 
	C239.754730,268.966492 237.561905,267.910675 236.247971,268.923523 
	C237.045242,270.213013 238.331558,269.487183 239.340591,269.732391 
	C240.418152,269.994232 241.273544,270.423798 241.261993,271.614166 
	C241.249527,272.898346 240.218903,273.307159 239.191544,273.220795 
	C236.691345,273.010498 233.313065,274.694153 231.954269,271.744202 
	C230.345474,268.251556 230.692795,264.233215 231.909622,260.540710 
	C232.324783,259.280945 240.188629,259.114410 240.827042,260.380310 
	C242.798355,264.289368 238.392975,262.519135 237.434174,263.990448 
	C238.140869,265.250092 240.549255,264.278961 240.602417,266.659241 
z"/>
<path fill="#000000" opacity="1.000000" stroke="none" 
	d="
M228.014069,261.829681 
	C227.703430,264.547058 225.356415,263.201691 224.065643,264.216187 
	C226.719208,265.621765 229.541718,266.815887 228.261932,270.510437 
	C227.305908,273.270294 224.947525,273.464844 222.546616,273.346710 
	C220.548660,273.248383 217.845093,273.077209 217.971176,270.659027 
	C218.123474,267.738922 220.976929,269.240875 223.276779,269.370056 
	C220.706406,266.897980 215.898895,266.223694 218.675644,261.625153 
	C220.402435,258.765442 224.906067,258.799530 228.014069,261.829681 
z"/>
<path fill="#000000" opacity="1.000000" stroke="none" 
	d="
M252.079788,259.873627 
	C256.101288,263.413757 252.639740,263.458282 250.292999,264.159424 
	C252.923859,265.559998 255.522217,266.993622 254.301193,270.543854 
	C253.384827,273.208252 251.163162,273.680664 248.658340,273.429260 
	C246.826721,273.245422 244.500656,273.108032 244.495407,270.860046 
	C244.488632,267.965912 247.173401,269.479248 248.917236,269.068634 
	C247.007050,266.982544 242.916718,266.232544 244.479950,262.366852 
	C245.809525,259.079041 248.865692,259.408508 252.079788,259.873627 
z"/>
<path fill="#000000" opacity="1.000000" stroke="none" 
	d="
M114.571442,262.921265 
	C114.433861,260.423767 115.500534,259.441772 117.555099,259.667389 
	C119.796837,259.913605 122.322220,258.590210 124.227257,260.388123 
	C125.201530,261.307617 124.674278,262.671387 123.286301,263.088257 
	C122.094048,263.446350 120.805077,263.482422 119.349663,263.690887 
	C120.535652,265.405365 122.958420,263.886078 123.641449,266.024475 
	C123.826370,268.975006 120.656013,267.684784 119.460678,269.031738 
	C120.917953,270.566650 124.819046,268.482574 124.408394,271.655151 
	C124.044662,274.465332 120.850464,273.038055 118.886528,273.294067 
	C115.480858,273.737946 113.946869,272.291931 114.437653,268.729706 
	C114.683990,266.941711 114.519905,265.097137 114.571442,262.921265 
z"/>
<path fill="#000000" opacity="1.000000" stroke="none" 
	d="
M188.320312,270.512695 
	C187.601486,272.142700 186.927017,273.366913 185.253815,272.967133 
	C183.838486,272.628937 183.769913,271.327942 183.727280,270.153870 
	C183.672943,268.657684 183.597321,267.152649 183.697296,265.662598 
	C183.862122,263.205902 182.687561,259.851624 186.962021,259.754272 
	C189.872040,259.687958 193.342758,258.983459 194.335480,263.023651 
	C195.245178,266.725952 193.162338,268.598846 189.753830,269.395020 
	C189.303223,269.500275 188.923935,269.910858 188.320312,270.512695 
z"/>
<path fill="#000000" opacity="1.000000" stroke="none" 
	d="
M160.034332,273.316010 
	C157.158813,273.418518 155.760681,272.419586 155.789627,269.848389 
	C155.797119,269.182159 155.769943,268.515472 155.755173,267.849091 
	C155.562042,259.128693 156.857483,258.166473 165.731491,260.505646 
	C166.459305,264.289185 162.906555,262.673004 161.467148,263.841644 
	C162.096390,265.423157 164.546417,264.053986 164.919739,265.951996 
	C165.512451,268.814209 162.228378,267.621979 161.327972,269.345306 
	C162.116730,269.474304 162.728424,269.582153 163.342621,269.673065 
	C164.476440,269.840881 165.899811,269.759521 165.901672,271.388184 
	C165.903870,273.321442 164.274475,273.151031 162.991943,273.275482 
	C162.165482,273.355621 161.326904,273.310760 160.034332,273.316010 
z"/>
<path fill="#000000" opacity="1.000000" stroke="none" 
	d="
M302.313416,269.081238 
	C303.712494,268.767059 304.694183,268.879120 305.084778,270.049622 
	C305.465698,271.191010 304.814850,272.029968 303.858887,272.465302 
	C300.781433,273.866791 297.608368,274.201965 295.159698,271.476166 
	C292.506592,268.522766 292.428040,264.980316 294.876770,261.917053 
	C297.282532,258.907562 300.617828,258.957825 303.908295,260.544037 
	C305.020416,261.080139 305.799530,262.128021 305.144226,263.405548 
	C304.482025,264.696564 303.172516,264.526001 302.072723,264.074371 
	C299.710388,263.104340 297.803619,263.766571 297.625122,266.221344 
	C297.425812,268.962860 299.334961,269.929230 302.313416,269.081238 
z"/>
<path fill="#000000" opacity="1.000000" stroke="none" 
	d="
M201.151657,234.123291 
	C201.138199,237.427216 201.143402,240.258759 201.110016,243.089813 
	C201.088852,244.885590 200.797424,246.465118 198.402481,246.361526 
	C196.134125,246.263412 195.734146,244.784409 195.732758,242.952408 
	C195.729965,239.288269 195.698547,235.623871 195.733643,231.960098 
	C195.751312,230.116119 195.665054,228.063278 198.302887,227.936035 
	C200.926010,227.809464 201.129623,229.706161 201.163254,231.652237 
	C201.174759,232.318130 201.157883,232.984543 201.151657,234.123291 
z"/>
<path fill="#000000" opacity="1.000000" stroke="none" 
	d="
M146.114258,271.518982 
	C145.408707,268.076233 146.912949,264.422424 143.066498,262.347595 
	C142.255280,261.910004 142.599228,260.112457 143.711609,260.019836 
	C147.109406,259.736908 150.709320,258.670959 154.532684,261.404999 
	C150.671982,263.652374 149.920532,266.678345 149.961441,270.302094 
	C149.988037,272.658752 148.750961,274.265411 146.114258,271.518982 
z"/>
<path fill="#000000" opacity="1.000000" stroke="none" 
	d="
M282.055756,271.642578 
	C281.896454,268.223663 281.829712,265.242126 281.923737,262.265625 
	C281.962402,261.041534 282.553040,259.967194 284.040894,260.021332 
	C285.483856,260.073792 286.002808,261.111328 286.100006,262.360626 
	C286.366913,265.791473 285.189636,269.844666 290.814148,270.447205 
	C291.929718,270.566681 291.519531,273.009033 289.765350,273.140625 
	C287.222076,273.331512 284.474548,274.184570 282.055756,271.642578 
z"/>
<path fill="#000000" opacity="1.000000" stroke="none" 
	d="
M274.086151,265.775024 
	C273.005035,270.348480 278.743042,268.783142 278.979156,271.854340 
	C272.812225,275.202759 269.750366,273.688538 269.684509,267.359619 
	C269.677551,266.693085 269.576294,266.005096 269.703888,265.363892 
	C270.082184,263.462555 268.593140,260.199677 271.820679,260.194305 
	C274.905243,260.189209 273.737061,263.402710 274.086151,265.775024 
z"/>
<path fill="#000000" opacity="1.000000" stroke="none" 
	d="
M215.224365,268.772156 
	C214.982178,270.788208 215.404938,273.059601 212.950989,272.864532 
	C210.694565,272.685120 211.039749,270.494385 210.995621,268.899933 
	C210.935837,266.739410 210.965698,264.569794 211.101913,262.413208 
	C211.176498,261.232391 211.576797,260.038086 213.096375,260.012390 
	C214.606277,259.986816 215.076050,261.087799 215.138290,262.326447 
	C215.238464,264.319702 215.207657,266.319519 215.224365,268.772156 
z"/>
<path fill="#000000" opacity="1.000000" stroke="none" 
	d="
M157.763062,250.354065 
	C155.179688,249.016068 154.304260,243.220490 156.305664,242.074738 
	C158.508011,240.813934 160.622665,241.068329 161.147522,244.049911 
	C161.621048,246.739868 160.604980,248.921036 157.763062,250.354065 
z"/>
<path fill="#000000" opacity="1.000000" stroke="none" 
	d="
M225.659302,247.849411 
	C225.840485,247.086319 226.049713,246.567780 225.937103,246.132507 
	C225.492752,244.414917 224.405731,242.588928 226.846390,241.489029 
	C228.170349,240.892395 229.652252,241.029999 230.442490,242.202209 
	C231.874252,244.326019 231.598297,246.621429 230.026932,248.597076 
	C228.987213,249.904312 227.638489,251.055862 225.828781,249.897781 
	C225.493164,249.683014 225.623917,248.739441 225.659302,247.849411 
z"/>
<path fill="#000000" opacity="1.000000" stroke="none" 
	d="
M256.959686,271.550476 
	C257.465454,269.804413 258.332458,268.893707 259.907104,269.458649 
	C261.198822,269.922119 261.421448,271.149078 261.294586,272.321960 
	C261.076447,274.338531 260.591064,276.231567 257.904266,276.128387 
	C256.694397,274.856140 257.654053,273.189789 256.959686,271.550476 
z"/>
</svg>