<svg version="1.1" id="Layer_1" xmlns="http://www.w3.org/2000/svg" xmlns:xlink="http://www.w3.org/1999/xlink" x="0px" y="0px"
	 width="100%" viewBox="0 0 1024 1024" enable-background="new 0 0 1024 1024" xml:space="preserve">
<path fill="#FFFFFF" opacity="1.000000" stroke="none" 
	d="
M538.000000,1025.000000 
	C358.666656,1025.000000 179.833328,1025.000000 1.000000,1025.000000 
	C1.000000,683.666687 1.000000,342.333344 1.000000,1.000000 
	C342.333344,1.000000 683.666687,1.000000 1025.000000,1.000000 
	C1025.000000,342.333344 1025.000000,683.666687 1025.000000,1025.000000 
	C862.833313,1025.000000 700.666687,1025.000000 538.000000,1025.000000 
M665.370056,714.817810 
	C659.416626,730.684021 653.458435,746.548523 647.511414,762.417114 
	C643.101990,774.182800 649.409668,784.071655 661.961365,784.897095 
	C664.765442,785.081482 667.742676,785.217712 670.406128,784.503357 
	C681.137329,781.624878 692.252441,779.503906 702.370728,775.126648 
	C755.884033,751.976318 795.157715,712.817932 823.955383,662.997253 
	C851.517029,615.314880 862.403748,562.988586 862.759644,508.369537 
	C863.006897,470.429169 856.639465,433.114166 850.676514,395.770813 
	C848.903931,384.669800 847.924744,373.184814 848.626709,362.004150 
	C849.777771,343.669891 859.270081,328.958588 872.775940,316.951660 
	C883.603088,307.326050 895.044556,298.390900 905.857239,288.749847 
	C927.781555,269.201080 942.305664,245.243210 947.539551,216.096390 
	C950.593384,199.090057 951.205566,181.990479 947.979065,164.920197 
	C945.635132,152.519119 939.042664,148.100906 926.810852,149.553741 
	C900.452271,152.684433 874.683167,151.992371 849.080566,142.636444 
	C812.105042,129.124542 773.692810,124.458984 734.552795,131.056580 
	C691.962585,138.235764 657.954956,159.438858 633.155212,195.068405 
	C619.624939,214.507202 612.598206,236.652069 605.917603,259.010315 
	C592.146667,305.098297 576.775085,350.587952 554.176941,393.280304 
	C533.317200,432.688446 507.440277,468.063202 471.874115,495.659302 
	C444.933807,516.562500 414.931091,531.935608 383.180542,543.855774 
	C354.240417,554.720825 324.761505,564.159241 295.880035,575.170593 
	C222.746735,603.053284 168.035843,652.416870 129.805115,720.273560 
	C124.824577,729.113647 121.116608,739.008301 118.718498,748.876099 
	C116.019417,759.982361 124.088898,769.628906 135.183060,770.684753 
	C142.107986,771.343750 146.923584,767.339783 151.952911,763.230896 
	C170.767090,747.859741 189.179977,731.883667 208.925674,717.791138 
	C245.097198,691.975586 284.272491,672.269714 328.392517,663.453979 
	C362.215088,656.695862 394.175537,659.821960 424.134247,678.102539 
	C436.047394,685.371826 448.372925,692.024109 460.822174,698.343689 
	C487.585602,711.929382 515.594788,715.387268 544.622803,706.883606 
	C569.912720,699.475098 589.892517,684.057922 606.772949,664.318665 
	C635.454346,630.780029 653.323181,591.686523 664.939453,549.518677 
	C668.595581,536.246277 671.315857,522.716125 674.442688,509.396759 
	C674.496399,509.446289 674.814453,509.604828 674.908569,509.849518 
	C675.326233,510.935303 675.671204,512.048706 676.057434,513.146851 
	C688.294617,547.938293 688.323425,583.692261 684.537781,619.765137 
	C681.176697,651.792847 674.836060,683.216492 665.370056,714.817810 
M309.819214,744.221924 
	C317.562012,742.286743 325.260681,740.148071 333.056732,738.458862 
	C349.228760,734.954651 365.573395,731.979187 381.987823,736.256226 
	C393.870941,739.352539 405.509674,743.416748 417.189270,747.256531 
	C433.711761,752.688416 450.435577,757.738770 467.986176,755.772400 
	C476.902008,754.773499 485.591461,751.430664 494.244385,748.706482 
	C495.807739,748.214294 497.812378,745.408020 497.593719,743.979187 
	C497.358246,742.440430 494.858032,741.090759 493.132111,739.995605 
	C492.063812,739.317810 490.584747,739.309448 489.311401,738.929199 
	C481.035553,736.457825 472.308990,734.933411 464.586578,731.285645 
	C447.315460,723.127502 430.417511,714.144775 413.610657,705.048706 
	C399.284058,697.295044 384.667908,690.822876 368.132751,689.763306 
	C347.911835,688.467590 328.335541,691.995239 309.105957,697.751709 
	C277.578705,707.189453 248.935928,722.684875 221.459763,740.432495 
	C188.986206,761.408081 159.253738,785.677185 133.883652,815.016968 
	C128.791260,820.906189 128.573166,827.112488 132.969681,831.549683 
	C137.549896,836.172302 143.462524,835.988342 149.623047,831.692261 
	C169.681366,817.704773 189.370514,803.102417 210.112244,790.200500 
	C241.125824,770.909119 274.106964,755.460449 309.819214,744.221924 
M363.765228,811.682373 
	C366.347900,812.318665 368.934113,812.941040 371.512695,813.593567 
	C393.896393,819.257141 416.074127,825.999207 438.714355,830.316284 
	C465.754852,835.472351 490.303345,828.588684 510.632385,809.316956 
	C516.179016,804.058777 521.318176,798.336914 526.283142,792.519531 
	C527.778503,790.767273 528.055176,787.974976 528.890076,785.659058 
	C526.304382,785.470032 523.720276,785.249878 521.131592,785.121399 
	C520.678345,785.098938 520.212158,785.479919 519.741638,785.645203 
	C498.687012,793.044434 477.116333,795.635742 454.861877,793.292480 
	C436.354340,791.343750 418.708984,786.112122 401.147125,780.381592 
	C382.462708,774.284790 363.552185,770.544373 343.713928,773.470093 
	C311.996582,778.147644 283.567200,791.124878 256.469940,807.501770 
	C254.228287,808.856506 250.960342,812.458008 251.456787,813.679688 
	C253.138702,817.818726 256.849976,815.184143 259.616241,814.353638 
	C278.847076,808.579834 298.394897,804.048889 318.533875,805.386475 
	C333.416229,806.375000 348.168396,809.324158 363.765228,811.682373 
z"/>
<path fill="#1B4172" opacity="1.000000" stroke="none" 
	d="
M665.530212,714.450867 
	C674.836060,683.216492 681.176697,651.792847 684.537781,619.765137 
	C688.323425,583.692261 688.294617,547.938293 676.057434,513.146851 
	C675.671204,512.048706 675.326233,510.935303 674.908569,509.849518 
	C674.814453,509.604828 674.496399,509.446289 674.442688,509.396759 
	C671.315857,522.716125 668.595581,536.246277 664.939453,549.518677 
	C653.323181,591.686523 635.454346,630.780029 606.772949,664.318665 
	C589.892517,684.057922 569.912720,699.475098 544.622803,706.883606 
	C515.594788,715.387268 487.585602,711.929382 460.822174,698.343689 
	C448.372925,692.024109 436.047394,685.371826 424.134247,678.102539 
	C394.175537,659.821960 362.215088,656.695862 328.392517,663.453979 
	C284.272491,672.269714 245.097198,691.975586 208.925674,717.791138 
	C189.179977,731.883667 170.767090,747.859741 151.952911,763.230896 
	C146.923584,767.339783 142.107986,771.343750 135.183060,770.684753 
	C124.088898,769.628906 116.019417,759.982361 118.718498,748.876099 
	C121.116608,739.008301 124.824577,729.113647 129.805115,720.273560 
	C168.035843,652.416870 222.746735,603.053284 295.880035,575.170593 
	C324.761505,564.159241 354.240417,554.720825 383.180542,543.855774 
	C414.931091,531.935608 444.933807,516.562500 471.874115,495.659302 
	C507.440277,468.063202 533.317200,432.688446 554.176941,393.280304 
	C576.775085,350.587952 592.146667,305.098297 605.917603,259.010315 
	C612.598206,236.652069 619.624939,214.507202 633.155212,195.068405 
	C657.954956,159.438858 691.962585,138.235764 734.552795,131.056580 
	C773.692810,124.458984 812.105042,129.124542 849.080566,142.636444 
	C874.683167,151.992371 900.452271,152.684433 926.810852,149.553741 
	C939.042664,148.100906 945.635132,152.519119 947.979065,164.920197 
	C951.205566,181.990479 950.593384,199.090057 947.539551,216.096390 
	C942.305664,245.243210 927.781555,269.201080 905.857239,288.749847 
	C895.044556,298.390900 883.603088,307.326050 872.775940,316.951660 
	C859.270081,328.958588 849.777771,343.669891 848.626709,362.004150 
	C847.924744,373.184814 848.903931,384.669800 850.676514,395.770813 
	C856.639465,433.114166 863.006897,470.429169 862.759644,508.369537 
	C862.403748,562.988586 851.517029,615.314880 823.955383,662.997253 
	C795.157715,712.817932 755.884033,751.976318 702.370728,775.126648 
	C692.252441,779.503906 681.137329,781.624878 670.406128,784.503357 
	C667.742676,785.217712 664.765442,785.081482 661.961365,784.897095 
	C649.409668,784.071655 643.101990,774.182800 647.511414,762.417114 
	C653.458435,746.548523 659.416626,730.684021 665.530212,714.450867 
M143.711227,742.819214 
	C151.637772,736.214661 159.460709,729.480835 167.508820,723.027893 
	C201.847366,695.495850 238.562134,671.943726 279.850037,656.027588 
	C304.094269,646.681580 329.251007,641.154541 355.046082,639.287537 
	C381.707703,637.357849 406.392731,644.798218 429.486298,657.975281 
	C444.515991,666.551086 459.496643,675.238525 474.813965,683.276245 
	C487.052002,689.698120 500.461914,692.824036 514.252258,692.788086 
	C540.779419,692.718933 562.968933,681.775330 581.719788,663.649353 
	C611.759583,634.610596 629.545898,598.228699 641.740479,559.067749 
	C648.192139,538.349243 652.161804,516.850769 657.067810,495.661743 
	C658.835754,488.025970 664.322876,481.664978 671.765381,480.399628 
	C679.492310,479.085999 685.585266,482.381744 689.515564,488.891724 
	C692.418213,493.699646 694.867798,498.880341 696.799194,504.158417 
	C706.051208,529.441956 709.871460,555.812317 709.556763,582.521179 
	C709.326294,602.075134 707.401672,621.693848 704.928284,641.117676 
	C700.735596,674.043213 692.467041,706.062195 680.532837,737.078003 
	C677.445007,745.103088 674.109375,753.032776 670.887573,761.006287 
	C671.130798,761.464722 671.374023,761.923218 671.617310,762.381653 
	C679.934814,759.321167 688.525879,756.845093 696.523743,753.101562 
	C736.967957,734.171692 768.208313,704.504944 793.426270,668.213074 
	C824.033875,624.164795 836.558411,574.266418 838.715332,521.493530 
	C839.473938,502.931122 838.461731,484.201355 836.887451,465.664398 
	C835.203125,445.830994 832.007751,426.120270 829.271667,406.383759 
	C827.220276,391.585968 824.556152,376.936310 825.761292,361.799072 
	C827.764221,336.641052 839.199585,316.410461 857.266418,299.702850 
	C867.271057,290.450867 878.391907,282.417816 888.659668,273.435364 
	C900.473816,263.100189 911.612305,252.104324 918.097534,237.346649 
	C925.956421,219.462967 928.915894,200.811401 927.222412,181.372101 
	C926.654236,174.850113 926.632446,174.634430 920.160095,174.832550 
	C912.510742,175.066711 904.869812,175.733368 897.221375,175.806656 
	C878.929688,175.981903 861.215881,173.061417 843.979736,166.563477 
	C815.352112,155.771011 785.870667,150.259460 755.039490,152.801880 
	C729.418274,154.914642 705.591309,161.944168 684.800171,177.231796 
	C661.918457,194.056564 644.343872,214.945114 635.770142,242.820206 
	C626.285583,273.656830 616.555481,304.449768 605.735107,334.835388 
	C592.920410,370.821259 576.800659,405.366425 555.742554,437.408447 
	C535.748047,467.832123 512.175537,495.025909 482.937836,516.979004 
	C450.922638,541.017517 414.950226,557.359375 377.560242,570.974792 
	C348.179352,581.673828 318.480255,591.658386 289.685547,603.773865 
	C232.920975,627.657715 188.864792,667.074951 155.464127,718.527161 
	C150.521301,726.141357 146.925232,734.629822 142.374786,742.989075 
	C142.424957,743.225647 142.475128,743.462158 142.525269,743.698730 
	C142.722855,743.509460 142.920425,743.320251 143.711227,742.819214 
z"/>
<path fill="#029DDD" opacity="1.000000" stroke="none" 
	d="
M309.442902,744.364014 
	C274.106964,755.460449 241.125824,770.909119 210.112244,790.200500 
	C189.370514,803.102417 169.681366,817.704773 149.623047,831.692261 
	C143.462524,835.988342 137.549896,836.172302 132.969681,831.549683 
	C128.573166,827.112488 128.791260,820.906189 133.883652,815.016968 
	C159.253738,785.677185 188.986206,761.408081 221.459763,740.432495 
	C248.935928,722.684875 277.578705,707.189453 309.105957,697.751709 
	C328.335541,691.995239 347.911835,688.467590 368.132751,689.763306 
	C384.667908,690.822876 399.284058,697.295044 413.610657,705.048706 
	C430.417511,714.144775 447.315460,723.127502 464.586578,731.285645 
	C472.308990,734.933411 481.035553,736.457825 489.311401,738.929199 
	C490.584747,739.309448 492.063812,739.317810 493.132111,739.995605 
	C494.858032,741.090759 497.358246,742.440430 497.593719,743.979187 
	C497.812378,745.408020 495.807739,748.214294 494.244385,748.706482 
	C485.591461,751.430664 476.902008,754.773499 467.986176,755.772400 
	C450.435577,757.738770 433.711761,752.688416 417.189270,747.256531 
	C405.509674,743.416748 393.870941,739.352539 381.987823,736.256226 
	C365.573395,731.979187 349.228760,734.954651 333.056732,738.458862 
	C325.260681,740.148071 317.562012,742.286743 309.442902,744.364014 
z"/>
<path fill="#039DDD" opacity="1.000000" stroke="none" 
	d="
M363.371887,811.541077 
	C348.168396,809.324158 333.416229,806.375000 318.533875,805.386475 
	C298.394897,804.048889 278.847076,808.579834 259.616241,814.353638 
	C256.849976,815.184143 253.138702,817.818726 251.456787,813.679688 
	C250.960342,812.458008 254.228287,808.856506 256.469940,807.501770 
	C283.567200,791.124878 311.996582,778.147644 343.713928,773.470093 
	C363.552185,770.544373 382.462708,774.284790 401.147125,780.381592 
	C418.708984,786.112122 436.354340,791.343750 454.861877,793.292480 
	C477.116333,795.635742 498.687012,793.044434 519.741638,785.645203 
	C520.212158,785.479919 520.678345,785.098938 521.131592,785.121399 
	C523.720276,785.249878 526.304382,785.470032 528.890076,785.659058 
	C528.055176,787.974976 527.778503,790.767273 526.283142,792.519531 
	C521.318176,798.336914 516.179016,804.058777 510.632385,809.316956 
	C490.303345,828.588684 465.754852,835.472351 438.714355,830.316284 
	C416.074127,825.999207 393.896393,819.257141 371.512695,813.593567 
	C368.934113,812.941040 366.347900,812.318665 363.371887,811.541077 
z"/>
<path fill="#00B6AC" opacity="1.000000" stroke="none" 
	d="
M142.706116,742.713806 
	C146.925232,734.629822 150.521301,726.141357 155.464127,718.527161 
	C188.864792,667.074951 232.920975,627.657715 289.685547,603.773865 
	C318.480255,591.658386 348.179352,581.673828 377.560242,570.974792 
	C414.950226,557.359375 450.922638,541.017517 482.937836,516.979004 
	C512.175537,495.025909 535.748047,467.832123 555.742554,437.408447 
	C576.800659,405.366425 592.920410,370.821259 605.735107,334.835388 
	C616.555481,304.449768 626.285583,273.656830 635.770142,242.820206 
	C644.343872,214.945114 661.918457,194.056564 684.800171,177.231796 
	C705.591309,161.944168 729.418274,154.914642 755.039490,152.801880 
	C785.870667,150.259460 815.352112,155.771011 843.979736,166.563477 
	C861.215881,173.061417 878.929688,175.981903 897.221375,175.806656 
	C904.869812,175.733368 912.510742,175.066711 920.160095,174.832550 
	C926.632446,174.634430 926.654236,174.850113 927.222412,181.372101 
	C928.915894,200.811401 925.956421,219.462967 918.097534,237.346649 
	C911.612305,252.104324 900.473816,263.100189 888.659668,273.435364 
	C878.391907,282.417816 867.271057,290.450867 857.266418,299.702850 
	C839.199585,316.410461 827.764221,336.641052 825.761292,361.799072 
	C824.556152,376.936310 827.220276,391.585968 829.271667,406.383759 
	C832.007751,426.120270 835.203125,445.830994 836.887451,465.664398 
	C838.461731,484.201355 839.473938,502.931122 838.715332,521.493530 
	C836.558411,574.266418 824.033875,624.164795 793.426270,668.213074 
	C768.208313,704.504944 736.967957,734.171692 696.523743,753.101562 
	C688.525879,756.845093 679.934814,759.321167 671.617310,762.381653 
	C671.374023,761.923218 671.130798,761.464722 670.887573,761.006287 
	C674.109375,753.032776 677.445007,745.103088 680.532837,737.078003 
	C692.467041,706.062195 700.735596,674.043213 704.928284,641.117676 
	C707.401672,621.693848 709.326294,602.075134 709.556763,582.521179 
	C709.871460,555.812317 706.051208,529.441956 696.799194,504.158417 
	C694.867798,498.880341 692.418213,493.699646 689.515564,488.891724 
	C685.585266,482.381744 679.492310,479.085999 671.765381,480.399628 
	C664.322876,481.664978 658.835754,488.025970 657.067810,495.661743 
	C652.161804,516.850769 648.192139,538.349243 641.740479,559.067749 
	C629.545898,598.228699 611.759583,634.610596 581.719788,663.649353 
	C562.968933,681.775330 540.779419,692.718933 514.252258,692.788086 
	C500.461914,692.824036 487.052002,689.698120 474.813965,683.276245 
	C459.496643,675.238525 444.515991,666.551086 429.486298,657.975281 
	C406.392731,644.798218 381.707703,637.357849 355.046082,639.287537 
	C329.251007,641.154541 304.094269,646.681580 279.850037,656.027588 
	C238.562134,671.943726 201.847366,695.495850 167.508820,723.027893 
	C159.460709,729.480835 151.637772,736.214661 143.312653,742.869812 
	C142.914093,742.920410 142.706100,742.713806 142.706116,742.713806 
M779.359863,216.739944 
	C779.895996,218.132507 780.271301,219.615555 780.995239,220.902466 
	C784.763123,227.600433 790.653748,231.052719 798.229370,230.679474 
	C805.791748,230.306885 811.488403,226.449356 814.397583,219.278885 
	C817.263367,212.215729 815.656067,205.896194 810.375427,200.518661 
	C804.945190,194.988739 796.871948,193.614380 789.655029,196.869583 
	C782.122009,200.267319 778.691162,206.502029 779.359863,216.739944 
z"/>
<path fill="#00B6AC" opacity="1.000000" stroke="none" 
	d="
M143.016052,743.025757 
	C142.920425,743.320251 142.722855,743.509460 142.525269,743.698730 
	C142.475128,743.462158 142.424957,743.225647 142.540436,742.851440 
	C142.706100,742.713806 142.914093,742.920410 143.016052,743.025757 
z"/>
<path fill="#FAFDFD" opacity="1.000000" stroke="none" 
	d="
M779.263000,216.335144 
	C778.691162,206.502029 782.122009,200.267319 789.655029,196.869583 
	C796.871948,193.614380 804.945190,194.988739 810.375427,200.518661 
	C815.656067,205.896194 817.263367,212.215729 814.397583,219.278885 
	C811.488403,226.449356 805.791748,230.306885 798.229370,230.679474 
	C790.653748,231.052719 784.763123,227.600433 780.995239,220.902466 
	C780.271301,219.615555 779.895996,218.132507 779.263000,216.335144 
z"/>
</svg>